<svg height="40" width="131" xmlns="http://www.w3.org/2000/svg" xmlns:xlink="http://www.w3.org/1999/xlink" viewBox="0 0 587.61 149.43"><defs><style></style><clipPath id="e"><rect class="i" width="587.61" height="149.43"></rect></clipPath><clipPath id="f"><rect class="i" width="587.61" height="149.43"></rect></clipPath></defs><g id="a"></g><g id="b"><g id="c"><g id="d"><g class="h"><g class="j"><path class="g" d="M428.82,8.02c.01-4.36,2.7-7.22,7.12-7.23,12.72,0,26.14,0,38.87,.02,4.69,0,8.11,3.29,8.11,7.97,.01,14.99,.3,30.66,.3,45.64s-.29,30.61-.3,46.25c0,4.72-3.3,8.09-8.03,8.11-12.81,.07-26.06,.11-38.86,.05-4.34-.02-7.15-3.17-7.2-7.66l-.28-46.75,.28-46.4Zm15.47,6.17l.04,81.11h22.5V14.19h-22.55Z"></path><path class="g" d="M185.28,54.44c0-16.8-.05-53.6-.05-53.6h44.26V14.79h-27.87V47.14l23.91-.03v13.47h-23.91v34.34h28.37v13.94h-44.76s.06-37.46,.05-54.42"></path><path class="g" d="M349.94,108.83c-5.7-.02-8.8-3.07-8.84-8.8-.06-7.92-.06-26.3-.06-26.3l16,.02v22.14h19.92l.02-21.67s-27.31-24.71-34.21-32.75c-.98-1.14-1.66-2.96-1.67-3.75,0-.38-.04-19.43-.02-27.93,.01-5.42,3.12-8.48,8.48-8.57,5.24-.09,10.48-.46,15.73-.44,6.82,0,13.66,.24,20.48,.47,3.71,.12,7.04,3.59,7.14,8.22,.02,8.92,0,25.25,0,25.25h-15.99l.03-20.42h-19.91v20.35s21.35,20.13,30.61,29.02c2.54,2.44,4.4,3.29,4.71,7.19,.13,.9,.3,19.88,.29,28.46,0,6.45-3.05,9.5-9.46,9.51-5.42,0-27.59,.02-33.26,0"></path><polygon class="g" points="292.88 108.85 276.97 108.85 276.97 14.74 259.02 14.74 259.02 .8 310.81 .8 310.81 14.74 292.88 14.74 292.88 108.85"></polygon><path class="g" d="M20.01,51.35c.15-11-2.55-21.6-11.18-29.72-1.03-.98-1.98-2.06-2.93-3.14-2.71-3.07-2.81-6.56,.1-9.46C11.57,3.5,18.49,.67,26.22,.69c6.37,.02,14.11,.74,19.15,5.03,8.08,6.86,8.7,18.65,6.92,28.36-2.19,11.92-8.27,23.47-15.1,33.37-1.32,1.91-2.71,3.77-4.09,5.64-2.21,2.98-5.02,5.31-8.44,6.79-1.59,.68-3.46,.98-5.01,.22-5.44-2.64-1.63-11.61-.9-15.89,.73-4.27,1.22-8.59,1.27-12.86"></path><path class="g" d="M20.49,99.34c0,5.76-4.7,10.55-10.32,10.5C4.37,109.78,0,105.09,0,98.94,0,93.56,4.79,88.98,10.32,89.06c5.77,.1,10.16,4.53,10.16,10.28"></path><path class="g" d="M149.49,66.58c0-5.49-1.52-6.73-4.62-8.84-2.39-1.63-4.39-3.21-7.32-5.16,2.51-1.67,4.61-2.74,6.09-3.76,4.83-3.36,5.32-4.77,5.31-10.11-.03-10,.03-20,0-29.99-.01-4.33-2.74-7.93-7.1-7.93h-44.81V108.82s30.52,.07,44.18,.03c4.99-.02,8.22-3.29,8.24-8.31,.01-11.31,.04-22.63,.04-33.95m-15.75,28.73h-20.33V59.38h13.02l7.31,5.2v30.73Zm-.29-54.5l-7.02,5.2h-13.02V14.48h20.05v26.33Z"></path><path class="g" d="M518.95,.79h15.44V94.9h26.45v13.95s-29.41-.05-41.9,0V.79Z"></path><path class="g" d="M113.32,138.71c0,2.15-.38,4.05-1.12,5.67-.74,1.63-1.81,2.88-3.19,3.74-1.39,.88-2.98,1.31-4.78,1.31s-3.37-.43-4.77-1.31c-1.38-.86-2.45-2.11-3.22-3.72-.76-1.61-1.14-3.46-1.15-5.57v-1.24c0-2.14,.38-4.03,1.14-5.68,.76-1.64,1.83-2.89,3.22-3.76,1.38-.87,2.97-1.31,4.76-1.31s3.37,.44,4.75,1.3c1.39,.85,2.46,2.1,3.22,3.71,.75,1.61,1.13,3.49,1.14,5.63v1.22Zm-3.82-1.14c0-2.44-.46-4.31-1.39-5.61-.92-1.28-2.23-1.95-3.91-1.95s-2.94,.66-3.87,1.95c-.93,1.29-1.41,3.12-1.42,5.49v1.26c0,2.42,.47,4.29,1.41,5.6,.94,1.32,2.25,1.98,3.92,1.98s2.99-.64,3.9-1.93c.91-1.29,1.37-3.17,1.37-5.64v-1.14Z"></path><path class="g" d="M130.02,132.8l.11,1.88c1.2-1.45,2.79-2.19,4.75-2.19,3.4,0,5.14,1.95,5.19,5.84v10.8h-3.66v-10.59c0-1.03-.22-1.79-.68-2.3-.45-.5-1.18-.75-2.2-.75-1.46,0-2.57,.67-3.3,2.01v11.62h-3.67v-16.33h3.46Z"></path><path class="g" d="M160.87,149.43c-2.32,0-4.2-.74-5.64-2.2-1.45-1.46-2.17-3.41-2.17-5.85v-.45c0-1.63,.31-3.08,.94-4.37,.63-1.28,1.51-2.28,2.65-2.99,1.14-.72,2.4-1.08,3.8-1.08,2.23,0,3.95,.72,5.16,2.13,1.21,1.42,1.81,3.43,1.81,6.02v1.48h-10.67c.11,1.36,.57,2.42,1.35,3.2,.79,.79,1.78,1.18,2.98,1.18,1.68,0,3.05-.68,4.1-2.04l1.98,1.88c-.66,.98-1.53,1.73-2.62,2.28-1.08,.53-2.31,.8-3.67,.8m-.44-13.99c-1,0-1.82,.36-2.44,1.07-.62,.7-1.01,1.68-1.18,2.94h6.99v-.27c-.09-1.23-.41-2.16-.98-2.79-.58-.63-1.37-.95-2.39-.95"></path><polygon class="g" points="213.05 130.23 206.19 130.23 206.19 149.13 202.41 149.13 202.41 130.23 195.62 130.23 195.62 127.15 213.05 127.15 213.05 130.23"></polygon><path class="g" d="M231.3,149.43c-2.32,0-4.2-.74-5.64-2.2-1.45-1.46-2.18-3.41-2.18-5.85v-.45c0-1.63,.31-3.08,.95-4.37,.63-1.28,1.51-2.28,2.65-2.99,1.13-.72,2.4-1.08,3.8-1.08,2.23,0,3.95,.72,5.16,2.13,1.21,1.42,1.81,3.43,1.81,6.02v1.48h-10.67c.11,1.36,.57,2.42,1.35,3.2,.79,.79,1.78,1.18,2.98,1.18,1.68,0,3.05-.68,4.1-2.04l1.99,1.88c-.66,.98-1.53,1.73-2.62,2.28-1.08,.53-2.31,.8-3.67,.8m-.44-13.99c-1,0-1.82,.36-2.44,1.07-.62,.7-1.01,1.68-1.18,2.94h6.99v-.27c-.09-1.23-.41-2.16-.98-2.79-.58-.63-1.37-.95-2.39-.95"></path><path class="g" d="M260.34,149.13c-.16-.31-.3-.83-.42-1.53-1.17,1.22-2.6,1.83-4.29,1.83s-2.98-.47-4.01-1.4c-1.03-.94-1.55-2.1-1.55-3.48,0-1.74,.64-3.08,1.93-4.01,1.29-.93,3.15-1.4,5.55-1.4h2.25v-1.07c0-.85-.24-1.52-.71-2.03-.48-.51-1.2-.76-2.17-.76-.83,0-1.51,.21-2.05,.63-.53,.42-.8,.95-.8,1.59h-3.67c0-.89,.29-1.73,.89-2.51,.59-.78,1.4-1.39,2.42-1.83,1.02-.44,2.16-.67,3.42-.67,1.91,0,3.43,.49,4.58,1.45,1.13,.96,1.72,2.3,1.74,4.05v7.37c0,1.47,.21,2.64,.62,3.52v.26h-3.74Zm-4.03-2.65c.73,0,1.41-.17,2.05-.53,.63-.35,1.12-.82,1.44-1.42v-3.08h-1.98c-1.36,0-2.38,.23-3.07,.71-.69,.48-1.03,1.15-1.03,2.01,0,.7,.24,1.26,.71,1.68,.47,.42,1.09,.62,1.87,.62"></path><path class="g" d="M280.61,132.8l.11,1.7c1.14-1.34,2.71-2.01,4.7-2.01,2.19,0,3.68,.84,4.49,2.51,1.19-1.67,2.85-2.51,5.01-2.51,1.8,0,3.15,.5,4.02,1.5,.89,1,1.33,2.47,1.36,4.41v10.73h-3.67v-10.63c0-1.03-.23-1.79-.68-2.28-.45-.48-1.21-.73-2.25-.73-.84,0-1.52,.23-2.05,.67-.52,.45-.89,1.04-1.11,1.76l.02,11.2h-3.67v-10.75c-.06-1.93-1.03-2.89-2.95-2.89-1.46,0-2.5,.6-3.12,1.8v11.84h-3.67v-16.33h3.46Z"></path><path class="g" d="M349.37,138.71c0,2.15-.37,4.05-1.12,5.67-.74,1.63-1.81,2.88-3.19,3.74-1.39,.88-2.98,1.31-4.78,1.31s-3.37-.43-4.77-1.31c-1.38-.86-2.45-2.11-3.22-3.72-.76-1.61-1.14-3.46-1.16-5.57v-1.24c0-2.14,.38-4.03,1.14-5.68,.76-1.64,1.83-2.89,3.22-3.76,1.38-.87,2.97-1.31,4.76-1.31s3.37,.44,4.75,1.3c1.39,.85,2.46,2.1,3.22,3.71,.75,1.61,1.13,3.49,1.14,5.63v1.22Zm-3.81-1.14c0-2.44-.46-4.31-1.39-5.61-.92-1.28-2.23-1.95-3.91-1.95s-2.94,.66-3.87,1.95c-.93,1.29-1.41,3.12-1.42,5.49v1.26c0,2.42,.47,4.29,1.41,5.6,.94,1.32,2.25,1.98,3.92,1.98s2.99-.64,3.9-1.93c.91-1.29,1.37-3.17,1.37-5.64v-1.14Z"></path><path class="g" d="M366.08,132.8l.11,1.88c1.2-1.45,2.79-2.19,4.75-2.19,3.4,0,5.14,1.95,5.19,5.84v10.8h-3.66v-10.59c0-1.03-.22-1.79-.67-2.3-.45-.5-1.18-.75-2.21-.75-1.46,0-2.57,.67-3.3,2.01v11.62h-3.67v-16.33h3.45Z"></path><path class="g" d="M396.92,149.43c-2.32,0-4.2-.74-5.64-2.2-1.45-1.46-2.17-3.41-2.17-5.85v-.45c0-1.63,.31-3.08,.95-4.37,.62-1.28,1.51-2.28,2.65-2.99,1.14-.72,2.4-1.08,3.8-1.08,2.23,0,3.95,.72,5.16,2.13,1.21,1.42,1.82,3.43,1.82,6.02v1.48h-10.67c.11,1.36,.57,2.42,1.36,3.2,.79,.79,1.78,1.18,2.98,1.18,1.68,0,3.05-.68,4.1-2.04l1.98,1.88c-.65,.98-1.53,1.73-2.62,2.28-1.08,.53-2.31,.8-3.67,.8m-.44-13.99c-1,0-1.82,.36-2.44,1.07-.62,.7-1.01,1.68-1.18,2.94h6.99v-.27c-.09-1.23-.41-2.16-.98-2.79-.58-.63-1.37-.95-2.39-.95"></path><path class="g" d="M434.12,149.13v-21.98h6.49c1.94,0,3.67,.44,5.17,1.29,1.5,.87,2.67,2.1,3.49,3.69,.82,1.59,1.24,3.41,1.24,5.47v1.1c0,2.07-.42,3.91-1.25,5.49-.82,1.58-2.01,2.8-3.54,3.65-1.54,.86-3.3,1.28-5.28,1.28h-6.32Zm3.82-18.9v15.85h2.49c2,0,3.54-.63,4.61-1.88,1.07-1.26,1.61-3.05,1.64-5.39v-1.22c0-2.39-.52-4.2-1.56-5.47-1.03-1.26-2.53-1.89-4.51-1.89h-2.67Z"></path><path class="g" d="M472.37,136.15c-.48-.08-.98-.12-1.5-.12-1.68,0-2.81,.64-3.39,1.93v11.17h-3.67v-16.33h3.5l.09,1.83c.89-1.42,2.11-2.13,3.68-2.13,.52,0,.95,.07,1.29,.21v3.44Z"></path><path class="g" d="M491.46,149.43c-2.32,0-4.2-.74-5.65-2.2-1.44-1.46-2.17-3.41-2.17-5.85v-.45c0-1.63,.31-3.08,.95-4.37,.63-1.28,1.51-2.28,2.65-2.99,1.14-.72,2.4-1.08,3.81-1.08,2.22,0,3.94,.72,5.16,2.13,1.21,1.42,1.81,3.43,1.81,6.02v1.48h-10.67c.11,1.36,.56,2.42,1.35,3.2,.79,.79,1.78,1.18,2.98,1.18,1.68,0,3.05-.68,4.1-2.04l1.98,1.88c-.65,.98-1.52,1.73-2.62,2.28-1.08,.53-2.31,.8-3.67,.8m-.44-13.99c-1.01,0-1.82,.36-2.44,1.07-.61,.7-1.01,1.68-1.18,2.94h6.99v-.27c-.09-1.23-.41-2.16-.98-2.79-.58-.63-1.37-.95-2.39-.95"></path><path class="g" d="M520.51,149.13c-.16-.31-.3-.83-.42-1.53-1.17,1.22-2.6,1.83-4.29,1.83s-2.98-.47-4.01-1.4c-1.03-.94-1.56-2.1-1.56-3.48,0-1.74,.64-3.08,1.94-4.01,1.29-.93,3.15-1.4,5.55-1.4h2.25v-1.07c0-.85-.24-1.52-.71-2.03-.48-.51-1.19-.76-2.16-.76-.83,0-1.52,.21-2.05,.63-.53,.42-.8,.95-.8,1.59h-3.67c0-.89,.3-1.73,.9-2.51,.58-.78,1.4-1.39,2.42-1.83,1.01-.44,2.16-.67,3.42-.67,1.91,0,3.43,.49,4.57,1.45,1.14,.96,1.72,2.3,1.75,4.05v7.37c0,1.47,.21,2.64,.62,3.52v.26h-3.74Zm-4.03-2.65c.72,0,1.4-.17,2.05-.53,.63-.35,1.11-.82,1.44-1.42v-3.08h-1.98c-1.36,0-2.38,.23-3.07,.71-.68,.48-1.02,1.15-1.02,2.01,0,.7,.24,1.26,.71,1.68,.46,.42,1.09,.62,1.87,.62"></path><path class="g" d="M540.78,132.8l.11,1.7c1.14-1.34,2.71-2.01,4.7-2.01,2.19,0,3.68,.84,4.49,2.51,1.18-1.67,2.85-2.51,5.01-2.51,1.8,0,3.14,.5,4.02,1.5,.88,1,1.33,2.47,1.35,4.41v10.73h-3.67v-10.63c0-1.03-.22-1.79-.68-2.28-.45-.48-1.21-.73-2.25-.73-.84,0-1.52,.23-2.05,.67-.52,.45-.89,1.04-1.11,1.76l.02,11.2h-3.67v-10.75c-.05-1.93-1.03-2.89-2.94-2.89-1.47,0-2.51,.6-3.12,1.8v11.84h-3.67v-16.33h3.45Z"></path><path class="g" d="M579.42,1.05c3.94,0,7.14,3.2,7.14,7.14s-3.2,7.15-7.14,7.15-7.14-3.21-7.14-7.15,3.2-7.14,7.14-7.14m0-1.05c-4.51,0-8.2,3.69-8.2,8.18s3.69,8.2,8.2,8.2,8.19-3.68,8.19-8.2-3.68-8.18-8.19-8.18"></path><path class="g" d="M581.8,8.01c-.21,.36-.52,.57-.86,.63l1.57,2.91h-1.65l-1.31-2.61h-1.77v2.61h-1.45V4.83h3.74c.86,0,1.39,.27,1.67,.75,.2,.31,.3,.71,.3,1.26,0,.51-.1,.91-.25,1.17m-1.28-1.59c-.12-.24-.37-.35-.78-.35h-1.95v1.68h2.05c.32,0,.57-.09,.67-.27,.06-.13,.1-.35,.1-.52,0-.19-.03-.42-.08-.53"></path></g></g></g></g></g></svg>