<svg width="313" height="57" viewBox="0 0 313 57" fill="none" xmlns="http://www.w3.org/2000/svg">
<path d="M45.199 5.55765L45.2298 5.53726C45.2298 5.53726 43.8932 3.94536 42.6233 2.43577L42.0939 1.80643C42.049 1.75279 42.0044 1.69988 41.9601 1.6477C41.4369 1.02569 40.9732 0.476213 40.6859 0.136881L40.5699 0L40.4274 0.11075C38.3257 1.74889 36.6674 3.87943 35.6016 6.3108C34.7926 8.15789 34.2603 9.86188 33.9745 11.52C33.8788 12.0746 33.7985 12.6377 33.7324 13.2228C33.6139 14.273 33.5411 15.3941 33.5076 16.6662C33.5002 16.954 33.4946 17.2497 33.491 17.5535C33.4762 18.795 33.4619 20.0364 33.4481 21.2777C33.4335 22.5454 33.3438 32.6228 33.2622 36.7095C33.2597 36.8349 33.2565 36.9605 33.2533 37.0859C33.2526 37.1174 33.2519 37.1491 33.2511 37.1806C33.2496 37.1775 33.2481 37.1742 33.2465 37.171C33.2274 37.1301 33.2079 37.0893 33.1884 37.0489C33.1638 36.9974 33.1395 36.946 33.1154 36.8945C33.0604 36.7788 33.0046 36.6611 32.9493 36.5426C32.8976 36.4313 32.8467 36.3193 32.7983 36.2079L32.7912 36.1921C32.7041 36.001 32.6161 35.8067 32.5284 35.6125L32.4754 35.4954C31.8906 34.1977 31.2966 32.8401 30.6594 31.3453C30.0002 29.799 29.3514 28.2337 28.7127 26.6733C28.4665 26.0709 28.2216 25.4701 27.9781 24.8708C27.6481 24.0578 27.321 23.2498 26.9967 22.4468C26.6743 21.6495 26.3467 20.8401 26.017 20.0279C25.7223 19.3017 25.4258 18.5744 25.1276 17.8459C24.9168 17.3322 24.7056 16.8198 24.4938 16.3087C24.323 15.8966 24.1452 15.4825 23.9604 15.0664C23.0457 13.0158 21.9237 10.9613 20.2512 9.2345C20.0288 9.00594 19.7942 8.78946 19.5484 8.586C18.0175 7.31414 16.0894 6.5732 14.2312 6.57308C13.9076 6.57362 13.5843 6.59647 13.2638 6.64146C12.9935 6.67839 12.7256 6.7314 12.4617 6.8002C10.0766 7.42709 8.64313 9.5256 7.39371 11.4309L7.39174 11.4274C6.81769 10.4095 6.24413 9.39385 6.15993 9.25392C5.53873 9.52743 0.406255 12.3842 0 12.6537C0.644345 13.711 1.27589 14.8544 1.90336 16.0988L1.96578 16.2232C2.04223 16.3759 2.11868 16.5294 2.19525 16.685C2.19624 16.6872 2.19747 16.6897 2.19845 16.6918C2.22812 16.7521 2.27749 16.8527 2.33978 16.9808C2.37905 17.0616 2.42349 17.1536 2.47151 17.2536C2.4752 17.261 2.47877 17.2688 2.48246 17.2764C2.60655 17.5354 2.7533 17.8455 2.89475 18.1579C2.94005 18.2575 2.98425 18.3569 3.02758 18.4552C3.04802 18.5016 3.06796 18.5474 3.08778 18.5929C3.18627 18.8218 3.27601 19.039 3.34311 19.2217C3.07005 20.0903 2.81559 20.9922 2.57775 21.9342C2.3399 22.8763 2.11917 23.8591 1.91297 24.8898C1.77574 25.5769 1.64496 26.2861 1.52062 27.0174C1.07584 29.6317 0.76659 32.0958 0.589069 34.4429C0.56494 34.7631 0.543068 35.0813 0.523453 35.3975C0.452051 36.5672 0.414216 37.7095 0.409948 38.8243C0.406829 39.6614 0.422382 40.4852 0.456606 41.2958C0.456606 41.301 0.456606 41.3063 0.456606 41.3115C0.466126 41.5354 0.476754 41.7614 0.48849 41.9893C0.489106 42.0015 0.489845 42.0137 0.49046 42.0259C0.502278 42.2513 0.515492 42.4784 0.530101 42.707C0.538965 42.8454 0.548444 42.9845 0.558539 43.1243C0.609874 43.8325 0.677707 44.5546 0.769791 45.282C0.773854 45.3139 0.778039 45.3457 0.782102 45.3777C0.826174 45.7179 0.875992 46.0591 0.931554 46.4012C1.30506 48.6919 1.95876 51.0031 3.14072 53.1145C3.27281 53.3503 3.44196 53.6288 3.64546 53.9248C3.99091 54.4338 4.3897 54.9052 4.83517 55.3309C5.17241 55.6464 5.55491 55.9106 5.97022 56.1149C6.04006 56.1495 6.11093 56.1827 6.18283 56.2144C6.2461 56.2422 6.31012 56.2689 6.37487 56.2944C7.07289 56.5639 7.81607 56.6997 8.56508 56.6947C9.65222 56.6895 10.7243 56.4421 11.7021 55.9708C13.511 55.0894 14.6999 53.5124 15.1404 51.4101C15.199 51.1303 15.2541 50.8446 15.3061 50.5516C15.3234 50.4539 15.3403 50.3554 15.3569 50.256C15.48 49.5156 15.5844 48.7254 15.6722 47.8627C15.7257 47.3357 15.7735 46.7823 15.8156 46.195C16.0994 42.2394 15.8863 38.1871 15.1645 33.928C15.0988 33.5408 15.0291 33.1519 14.9552 32.7611C14.659 31.1982 14.2953 29.6048 13.864 27.9811C13.5533 26.8113 13.2205 25.6564 12.8656 24.5165C12.2747 22.6191 11.6253 20.7718 10.9236 18.9945C10.944 18.9262 10.966 18.8588 10.9876 18.7912C11.5105 17.155 12.3643 15.7396 12.7401 15.1172L12.7576 15.0883C13.2678 14.2434 13.9323 14.0659 14.3998 14.0659C14.5849 14.067 14.769 14.0944 14.9462 14.1474C14.9878 14.1596 15.0288 14.1719 15.0684 14.1863C15.2701 14.2574 15.4573 14.3636 15.6214 14.5001C15.6303 14.5078 15.6412 14.5152 15.6497 14.5229L15.6514 14.5247C15.6859 14.5557 15.7182 14.5889 15.7482 14.6241C15.7868 14.6698 15.824 14.7194 15.8614 14.768C16.2923 15.3265 16.6509 16.0635 16.9977 16.7805C17.0392 16.866 17.0813 16.9535 17.1238 17.0406C17.472 17.8927 22.1603 29.3123 22.6793 30.5565C25.1273 36.423 30.2874 47.6926 32.1285 50.6461C32.1743 50.7194 32.2242 50.7897 32.2762 50.8581C33.1544 52.0158 34.8547 52.4342 36.0987 52.4342C36.5345 52.4399 36.9689 52.384 37.3887 52.268C38.9503 51.804 39.9555 50.587 40.0123 49.0933C40.3 41.5105 40.4243 16.3917 40.988 13.132C41.1292 12.3375 41.3239 11.5533 41.5707 10.7846C41.6879 10.4139 41.826 10.0421 41.9467 9.72231L42.0179 9.56981C42.0832 9.42999 42.1505 9.28554 42.2206 9.14646C42.5765 8.49757 42.9712 7.8703 43.4024 7.26799C43.5142 7.10775 43.6357 6.95439 43.7662 6.80875C43.8983 6.66991 44.0318 6.53218 44.1679 6.39786C44.3039 6.26354 44.4419 6.13265 44.583 6.00712C44.6322 5.96365 44.6833 5.92165 44.7349 5.88038C44.7795 5.84374 44.8249 5.80711 44.8703 5.76901L44.8717 5.77048L44.8724 5.77121C44.8801 5.76535 44.8871 5.76047 44.8943 5.75497C44.9016 5.74948 44.9092 5.74362 44.9163 5.73873C44.9454 5.71846 44.976 5.70003 45.0064 5.68159C45.0172 5.67499 45.0277 5.66816 45.0385 5.66144C45.0562 5.65057 45.074 5.63983 45.0913 5.62847L45.199 5.55765ZM8.43631 48.7822C8.33179 48.4036 8.23392 48.018 8.14208 47.6206C8.11155 47.4881 8.08168 47.3544 8.05246 47.2194C7.93526 46.6791 7.82853 46.1171 7.73053 45.5253L7.72709 45.5048C7.71785 45.4503 7.70862 45.3949 7.70099 45.34L7.68264 45.2019C7.65876 45.0213 7.63488 44.8408 7.61346 44.66C7.60115 44.5605 7.59056 44.459 7.57923 44.358C7.55461 44.1399 7.53139 43.9193 7.50956 43.6961C7.48026 43.3984 7.4533 43.0972 7.42867 42.7925C7.10256 38.7492 7.16362 34.4975 7.61629 29.828C7.64091 29.9394 7.665 30.0505 7.68855 30.1615C7.89254 31.1383 8.07708 32.1068 8.23712 33.0379C8.25719 33.1552 8.4464 34.3829 8.51608 34.8616C8.52396 34.9151 8.53024 34.9587 8.53467 34.9908C8.53689 35.0068 8.5391 35.0227 8.54033 35.0324C8.65803 35.9604 8.75134 36.8492 8.82176 37.7123C8.82459 37.7476 8.82754 37.7829 8.83038 37.8179C8.8632 38.2283 8.89066 38.6332 8.91273 39.0326C8.93736 39.4743 8.95582 39.911 8.96813 40.3427C8.96813 40.345 8.96813 40.3473 8.96813 40.3496C9.00334 41.5963 8.98734 42.9167 8.91618 44.5577C8.90617 44.7866 8.89517 45.0219 8.88319 45.2636C8.85167 45.8939 8.81437 46.4913 8.77239 47.0726C8.74482 47.4492 8.71498 47.8201 8.68289 48.1853C8.64928 48.561 8.61432 48.9162 8.57714 49.2611C8.53603 49.128 8.49897 49.0017 8.46401 48.8779C8.4549 48.846 8.4453 48.8133 8.43655 48.7818" fill="#1328E2"/>
<path d="M301.463 24.5674L301.406 24.4434C301.434 24.4802 301.453 24.5225 301.463 24.5674Z" fill="white"/>
<path d="M306.112 29.1933C306.106 29.2162 306.094 29.235 306.089 29.2578C305.89 30.0834 305.655 30.8991 305.375 31.7013C305.268 32.0059 305.168 32.3728 305.025 32.6846C304.987 32.7494 304.947 32.8211 304.922 32.8771C304.799 33.1482 304.671 33.4168 304.537 33.683C304.176 34.4055 303.777 35.109 303.342 35.791C303.114 36.1491 302.876 36.5009 302.628 36.8463C302.521 37.0097 302.405 37.1675 302.281 37.3194C302.233 37.3705 302.189 37.4178 302.167 37.4441C301.625 38.094 301.043 38.711 300.426 39.2917C300.117 39.5814 299.8 39.8616 299.475 40.1326C299.353 40.2499 299.22 40.3568 299.08 40.4522C299.867 40.0218 299.06 40.4577 298.876 40.5858C298.205 41.0561 297.503 41.4818 296.775 41.8603C296.44 42.0342 296.095 42.2096 295.742 42.3549C295.616 42.3985 295.467 42.4513 295.414 42.4705C295.161 42.5614 294.907 42.6468 294.651 42.7269C293.796 42.9852 292.925 43.1906 292.043 43.342C291.964 43.3566 291.908 43.3674 291.865 43.3759C291.7 43.389 291.532 43.3941 291.387 43.4049C290.898 43.441 290.408 43.4575 289.917 43.4544C289.517 43.4518 289.117 43.436 288.718 43.4072C288.572 43.3964 288.408 43.3902 288.247 43.3771C288.204 43.3684 288.149 43.3574 288.072 43.3423C287.114 43.1713 286.171 42.9266 285.251 42.6103C285.089 42.5635 284.93 42.5045 284.777 42.4336C284.717 42.3985 284.661 42.3666 284.626 42.3496C284.224 42.1565 283.831 41.9456 283.447 41.717C283.094 41.5061 282.764 41.2652 282.419 41.0425C282.416 41.0413 282.414 41.0399 282.412 41.0383C282.399 41.0272 282.391 41.019 282.377 41.0063C282.174 40.8243 281.963 40.6522 281.765 40.4639C281.598 40.3059 280.855 39.7347 280.833 39.4749C280.904 39.5696 280.976 39.6644 281.047 39.7593C280.938 39.6147 280.833 39.4677 280.731 39.3182C280.631 39.1702 280.535 39.0196 280.442 38.8664C283.903 38.3071 287.24 36.9452 289.86 34.9835C293.725 32.0881 296.977 27.7707 296.978 22.7618C296.979 17.2663 292.613 13.3625 287.345 12.7416C282.448 12.1646 278.034 15.1027 275.338 18.9416C272.913 22.3963 272.094 26.7891 271.996 30.9911C271.991 30.9885 271.981 30.983 271.98 30.9823C271.789 30.8784 271.603 30.768 271.42 30.651C271.322 30.5885 271.255 30.5481 271.21 30.5233C271.206 30.519 271.203 30.5168 271.199 30.5126C271.071 30.3979 270.941 30.2872 270.818 30.1675C270.674 30.028 269.979 29.1562 270.53 29.9017C270.394 29.7174 270.244 29.5433 270.082 29.381C268.562 31.1674 267.046 32.9576 265.573 34.7817C267.559 36.8265 270.092 38.0919 272.838 38.705C273.689 41.6349 275.248 44.2852 277.81 46.3C281.73 49.363 286.682 50.8259 291.654 50.3897C297.021 49.9098 301.958 47.6742 305.786 43.8937C309.179 40.5425 311.573 36.1869 312.769 31.5954C312.213 31.3325 307.741 29.8306 306.113 29.1933H306.112ZM279.287 31.9896C279.206 32.0036 279.149 32.014 279.102 32.0234C279.087 32.0247 279.072 32.0251 279.057 32.0263C279.057 31.9013 279.053 31.7761 279.054 31.6511C279.065 30.662 279.113 29.6721 279.217 28.6879C279.229 28.5797 279.243 28.4713 279.255 28.3624C279.282 28.212 279.329 27.9249 279.342 27.8591C279.439 27.3267 279.556 26.798 279.696 26.2751C279.823 25.8008 279.97 25.3327 280.137 24.8709C280.174 24.7703 280.272 24.529 280.295 24.4666C280.335 24.3822 280.372 24.2969 280.413 24.2135C280.598 23.8372 280.801 23.4701 281.021 23.1122C281.153 22.8969 281.303 22.6929 281.438 22.4796C281.459 22.4464 281.475 22.4202 281.488 22.3968L281.499 22.3846C281.774 22.0653 282.052 21.7512 282.355 21.4566C282.475 21.3396 282.597 21.2246 282.722 21.1129C282.769 21.0711 282.845 20.9894 282.915 20.9119C283.202 20.6954 283.509 20.5055 283.831 20.3446C283.975 20.2632 284.122 20.1851 284.271 20.1104C284.419 20.0356 284.57 19.9653 284.722 19.8992L284.34 20.0657C284.475 19.8598 285.291 19.7672 285.542 19.7139C285.564 19.7092 285.586 19.7051 285.608 19.7005C285.749 19.6934 285.988 19.6731 285.967 19.6738C286.195 19.6706 286.423 19.6795 286.65 19.7002C286.725 19.6969 286.801 19.7002 286.876 19.71C286.956 19.7135 287.036 19.7222 287.116 19.7207C287.051 19.7219 287.006 19.7219 286.954 19.7223C286.96 19.7237 286.966 19.724 286.973 19.7252C287.235 19.7813 287.494 19.8491 287.75 19.9305C287.89 19.9911 288.035 20.0417 288.182 20.082C288.143 20.0764 288.12 20.0719 288.087 20.0666C288.114 20.0781 288.142 20.0889 288.169 20.1033C288.427 20.2386 288.667 20.3963 288.908 20.5551C288.918 20.5658 288.919 20.5687 288.931 20.5811C289.047 20.7049 289.175 20.8291 289.3 20.9474C289.29 20.9208 289.281 20.9005 289.27 20.8699C289.283 20.9017 289.298 20.9325 289.315 20.962C289.32 20.9663 289.324 20.9706 289.328 20.9743C289.46 21.0991 289.501 21.2006 289.492 21.2336C289.541 21.2993 289.587 21.3676 289.629 21.4381L289.735 21.6375C289.737 21.6422 289.737 21.6428 289.739 21.6471C289.779 21.7838 289.817 21.9549 289.819 21.9621C289.826 21.9855 289.86 22.0953 289.893 22.2039C289.749 21.7483 289.907 22.3924 289.911 22.514C289.918 22.7234 289.915 22.9323 289.904 23.1414C289.903 23.1564 289.902 23.1711 289.902 23.1861C289.873 23.3112 289.858 23.5066 289.839 23.5931C289.763 23.9292 289.67 24.2612 289.559 24.5876C289.547 24.6255 289.491 24.7913 289.445 24.9196C289.423 24.962 289.398 25.0108 289.364 25.0809C289.19 25.436 288.999 25.7824 288.791 26.1202C288.6 26.4406 288.391 26.7497 288.164 27.0461C288.082 27.1354 287.989 27.2377 287.953 27.2794C287.787 27.4667 287.618 27.6498 287.444 27.8289C287.097 28.1871 286.735 28.5293 286.355 28.8555C286.23 28.9639 286.1 29.0685 285.973 29.1754L285.945 29.1986C285.906 29.2256 285.858 29.2584 285.792 29.3054C285.009 29.8591 284.182 30.3483 283.319 30.7682C283.169 30.8415 283.015 30.9079 282.865 30.9813L282.816 31.0034C282.728 31.038 282.64 31.0731 282.551 31.1064C282.16 31.2524 281.763 31.385 281.362 31.5042C280.882 31.647 280.395 31.7699 279.904 31.8729C279.699 31.9157 279.494 31.9544 279.288 31.9903" fill="#1328E2"/>
<path d="M46.7051 38.793V15.9337H54.9832V36.8882C54.9832 40.895 56.9037 43.4568 60.9438 43.4568C65.7115 43.4568 67.6985 39.5812 67.6985 34.6547V15.9337H75.9766V50.0905H68.8905L68.4931 44.967C67.0364 48.8425 62.9966 51.0102 58.6256 51.0102C51.7382 51.0102 46.7051 46.0837 46.7051 38.7926" fill="#1328E2"/>
<path d="M83.2104 15.9337H90.4285L90.7599 20.4661C92.6804 17.2475 95.992 15.0142 100.561 15.0142C105.396 15.0142 108.641 17.1818 110.362 20.5975C112.415 17.0504 116.124 15.0142 120.76 15.0142C128.111 15.0142 131.952 19.875 131.952 26.9691V50.0907H123.741V28.9391C123.741 24.7353 122.283 22.1735 118.376 22.1735C113.806 22.1735 111.687 26.1804 111.687 31.0412V50.0897H103.541V28.9391C103.541 24.7353 102.084 22.1735 98.1772 22.1735C93.6075 22.1735 91.4218 26.1804 91.4218 31.0412V50.0897H83.2106L83.2104 15.9337Z" fill="#1328E2"/>
<path d="M142.232 46.8064C138.722 43.5217 136.868 38.5956 136.868 33.0122C136.868 27.5602 138.722 22.6338 142.166 19.3494C144.815 16.7876 148.391 15.0146 153.16 15.0146C163.093 15.0146 169.053 21.9117 169.053 32.0931C169.053 33.4068 168.987 34.5892 168.854 35.3778H145.146C145.146 40.0422 148.193 44.5082 153.424 44.5082C157.199 44.5082 159.782 42.6034 160.378 39.9101H168.126C167.133 46.6102 160.974 51.0111 153.557 51.0111C148.656 51.0111 145.013 49.3689 142.232 46.8072V46.8064ZM160.775 29.3995C160.775 24.3416 157.796 21.5172 153.358 21.5172C148.855 21.5172 145.544 24.7357 145.212 29.3995H160.775Z" fill="#1328E2"/>
<path d="M174.723 15.9337H181.941L182.471 21.5827C184.06 17.248 188.167 15.474 192.206 15.474C193.071 15.4743 193.935 15.5401 194.789 15.6711V23.5533C193.925 23.3262 193.034 23.2158 192.14 23.2249C185.981 23.2249 183.068 27.1661 183.068 33.5377V50.0907H174.723V15.9337Z" fill="#1328E2"/>
<path d="M196.008 40.3034C196.008 34.063 200.644 29.9244 208.326 29.3993L217.796 28.7425V26.772C217.796 23.5533 216.074 21.32 211.703 21.32C207.663 21.32 205.611 23.0935 205.412 26.2464H197.4C197.4 19.7434 203.293 15.014 211.836 15.014C220.71 15.014 225.876 19.0866 225.876 27.8886V41.617C225.876 43.1936 226.604 43.7847 227.995 43.7847C228.352 43.7818 228.708 43.7377 229.055 43.6534V49.6965C227.995 50.2876 226.803 50.6161 224.949 50.6161C221.373 50.6161 219.187 48.5797 218.658 45.6239C217.069 48.3828 213.36 51.0102 208.459 51.0102C200.248 51.0102 196.009 45.8867 196.009 40.3034H196.008ZM217.797 36.2965V34.7858L209.85 35.3769C206.538 35.6397 204.088 36.8877 204.088 39.9749C204.088 42.6024 206.141 44.4416 209.585 44.4416C215.214 44.4416 217.797 40.7631 217.797 36.2965" fill="#1328E2"/>
<path d="M237.057 47.6602C233.084 44.2446 231.163 38.661 231.163 33.0779C231.163 27.2975 232.951 22.1082 236.329 18.8892C238.912 16.3931 242.422 15.0136 246.66 15.0136C251.627 15.0136 254.541 17.1813 255.733 19.2175V2.53369H264.011V50.0906H256.792L256.329 45.2298C255.004 49.1054 250.7 51.0102 246.461 51.0102C242.686 51.0102 239.441 49.6965 237.057 47.6602H237.057ZM253.415 41.748C255.401 39.5804 256.13 36.493 256.13 32.946C256.13 29.5303 255.468 26.5744 253.547 24.3411C252.223 22.7647 250.368 21.9112 247.852 21.9112C245.269 21.9112 243.415 22.8309 242.091 24.4729C240.236 26.772 239.574 29.6624 239.574 32.9471C239.574 36.2317 240.302 39.5157 242.289 41.6834C243.614 43.1285 245.402 44.0481 247.853 44.0481C250.303 44.0481 252.157 43.1285 253.415 41.7491" fill="#1328E2"/>
</svg>
